# xmcd
#
# Track frame offsets: 
#        150
#        13057
#        25011
#        37562
#        50802
#        61645
#        74862
#        88074
#        100944
#        111719
#        123415
#        136610
#        150392
#        162682
#        175379
#        188431
#        202124
#        213786
#        228066
#        241407
#        253043
#        264213
#        275662
#        286114
#        297638
#
# Disc length: 4107 seconds
#
# Revision: 1
# Processed by: cddbd v1.5.2PL0 Copyright (c) Steve Scherf et al.
# Submitted via: ExactAudioCopy v1.1
#
DISCID=69100919
DTITLE=Amos Milburn - Rockin' And Drinkin' [CD2)
DYEAR=1900
DGENRE=R&B
TTITLE0=I'm Going To Tell My Mama
TTITLE1=Let's Rock Awhile
TTITLE2=Tears Tears Tears (Tears In My Eyes)
TTITLE3=That Was Your Last Mistake
TTITLE4=Everybody Clap Hands
TTITLE5=Ain't Nothing Shakin'
TTITLE6=Just One More Drink
TTITLE7=Boogie Woogie
TTITLE8=Thinking And Drinking
TTITLE9=Trouble In Mind
TTITLE10=Flying Home
TTITLE11=Put Something In My Hand
TTITLE12=Roll Mister Jelly
TTITLE13=Let Me Go Home Whiskey
TTITLE14=One Scotch, One Bourbon, One Beer
TTITLE15=Good Good Whiskey
TTITLE16=Let's Have A Party
TTITLE17=Milk And Water
TTITLE18=Vicious Vicious Vodka
TTITLE19=I Done Done It (Don't Do It)
TTITLE20=House Party (Tonight)
TTITLE21=Chicken Shack Boogie (1956 version)
TTITLE22=Soft Pillow
TTITLE23=I Wanna Go Home (with Charles Brown)
TTITLE24=Educated Fool (with Charles Brown)
EXTD=
EXTT0=
EXTT1=
EXTT2=
EXTT3=
EXTT4=
EXTT5=
EXTT6=
EXTT7=
EXTT8=
EXTT9=
EXTT10=
EXTT11=
EXTT12=
EXTT13=
EXTT14=
EXTT15=
EXTT16=
EXTT17=
EXTT18=
EXTT19=
EXTT20=
EXTT21=
EXTT22=
EXTT23=
EXTT24=
PLAYORDER=
